<?xml version="1.0" encoding="UTF-8" standalone="no"?>
<!DOCTYPE svg PUBLIC "-//W3C//DTD SVG 1.1//EN" "http://www.w3.org/Graphics/SVG/1.1/DTD/svg11.dtd">
<svg width="100%" height="100%" viewBox="0 0 500 500" version="1.1" xmlns="http://www.w3.org/2000/svg" xmlns:xlink="http://www.w3.org/1999/xlink" xml:space="preserve" xmlns:serif="http://www.serif.com/" style="fill-rule:evenodd;clip-rule:evenodd;stroke-linejoin:round;stroke-miterlimit:2;">
    <g transform="matrix(1.07206,0,0,1.05149,-18.0149,-11.3181)">
        <rect x="16.804" y="10.764" width="466.392" height="475.517" style="fill:rgb(75,41,107);"/>
    </g>
    <g transform="matrix(0.879685,0,0,0.879685,-1202.56,187.352)">
        <g transform="matrix(1,0,0,1,740.91,48.4218)">
            <g transform="matrix(0.944028,0,0,0.944028,1159.4,101.186)">
                <path d="M0,10.87L0,-26.575C0,-12.08 -40.345,-0.241 -90.111,-0.241C-139.879,-0.241 -180.224,-12.08 -180.224,-26.575L-180.224,10.87C-180.224,25.605 -139.879,37.445 -90.111,37.445C-40.345,37.445 0,25.605 0,10.87" style="fill:rgb(139,98,32);"/>
            </g>
            <g transform="matrix(0.944028,0,0,0.944028,1154.5,141.324)">
                <path d="M0,-69.092L10.387,-69.092L10.387,-31.647C10.387,-21.743 -1.211,-13.287 -19.812,-7.972C-36.479,-3.141 -59.671,0 -85.039,0C-110.166,0 -133.358,-3.141 -150.024,-7.972C-168.627,-13.287 -180.225,-21.743 -180.225,-31.647L-180.225,-69.092L-169.838,-69.092C-169.838,-64.26 -161.14,-59.429 -147.128,-55.321C-131.423,-50.732 -109.442,-47.831 -85.039,-47.831C-60.396,-47.831 -38.415,-50.732 -22.709,-55.321C-8.697,-59.429 0,-64.26 0,-69.092M0,-31.647L0,-54.115C-5.073,-50.732 -11.84,-47.831 -19.812,-45.418C-36.479,-40.586 -59.671,-37.444 -85.039,-37.444C-110.166,-37.444 -133.358,-40.586 -150.024,-45.418C-158.239,-47.831 -164.765,-50.732 -169.838,-54.115L-169.838,-31.647C-169.838,-26.816 -161.14,-21.984 -147.128,-17.877C-131.423,-13.287 -109.442,-10.386 -85.039,-10.386C-60.396,-10.386 -38.415,-13.287 -22.709,-17.877C-8.697,-21.984 0,-26.816 0,-31.647" style="fill:rgb(139,98,32);fill-rule:nonzero;"/>
            </g>
            <g transform="matrix(0.944028,0,0,0.944028,1133.17,89.3268)">
                <path d="M0,-27.782C-15.706,-32.372 -37.687,-35.273 -62.33,-35.273C-86.733,-35.273 -108.714,-32.372 -124.419,-27.782C-138.431,-23.675 -147.129,-18.602 -147.129,-14.012C-147.129,-9.18 -138.431,-4.349 -124.419,-0.241C-108.714,4.348 -86.733,7.249 -62.33,7.249C-37.687,7.249 -15.706,4.348 0,-0.241C14.012,-4.349 22.709,-9.18 22.709,-14.012C22.709,-18.602 14.012,-23.675 0,-27.782M-62.33,-45.418C-36.962,-45.418 -13.771,-42.522 2.896,-37.445C21.498,-32.131 33.096,-23.92 33.096,-14.012C33.096,-4.108 21.498,4.107 2.896,9.662C-13.771,14.494 -36.962,17.636 -62.33,17.636C-87.457,17.636 -110.649,14.494 -127.315,9.662C-145.918,4.107 -157.516,-4.108 -157.516,-14.012C-157.516,-23.92 -145.918,-32.131 -127.315,-37.445C-110.649,-42.522 -87.457,-45.418 -62.33,-45.418" style="fill:rgb(213,172,78);fill-rule:nonzero;"/>
            </g>
            <g transform="matrix(0.944028,0,0,0.944028,1133.17,89.0983)">
                <path d="M0,-27.54C-15.706,-32.13 -37.687,-35.031 -62.33,-35.031C-86.733,-35.031 -108.714,-32.13 -124.419,-27.54C-138.431,-23.433 -147.129,-18.36 -147.129,-13.77C-147.129,-8.938 -138.431,-4.107 -124.419,0.001C-108.714,4.59 -86.733,7.491 -62.33,7.491C-37.687,7.491 -15.706,4.59 0,0.001C14.012,-4.107 22.709,-8.938 22.709,-13.77C22.709,-18.36 14.012,-23.433 0,-27.54" style="fill:rgb(238,207,109);"/>
            </g>
            <g transform="matrix(0.944028,0,0,0.944028,1116.75,104.836)">
                <path d="M0,24.641C6.521,23.675 12.318,22.223 17.396,20.775L18.602,20.534L18.602,0C13.047,1.449 6.767,2.897 0,3.863L0,24.641Z" style="fill:rgb(213,172,78);"/>
            </g>
            <g transform="matrix(-0.649296,-0.685277,-0.685277,0.649296,1016.03,116.928)">
                <path d="M-9.091,-21.551C-3.905,-17.481 1.118,-13.584 5.99,-10.547L-9.091,3.741C-13.966,0.708 -19.164,-3.024 -24.35,-7.094L-9.091,-21.551Z" style="fill:rgb(213,172,78);"/>
            </g>
            <g transform="matrix(-0.542242,-0.772763,-0.772763,0.542242,991.628,107.421)">
                <path d="M-5.104,-16.67C-0.329,-13.233 4.086,-10.723 8.144,-9.143L-5.104,0.153C-8.071,2.236 -14.149,0.302 -21.915,-4.873L-5.104,-16.67Z" style="fill:rgb(213,172,78);"/>
            </g>
            <g transform="matrix(0.944028,0,0,0.944028,1074.33,72.6772)">
                <path d="M0,-10.387C24.644,-10.387 46.624,-7.491 62.33,-2.9C72.958,0.241 80.449,3.625 83.587,7.249C84.556,6.038 85.039,4.832 85.039,3.625C85.039,-0.965 76.342,-6.038 62.33,-10.145C46.624,-14.736 24.644,-17.636 0,-17.636C-24.403,-17.636 -46.384,-14.736 -62.089,-10.145C-76.101,-6.038 -84.799,-0.965 -84.799,3.625C-84.799,4.832 -84.315,6.038 -83.346,7.249C-80.208,3.625 -72.718,0.241 -62.089,-2.9C-46.384,-7.491 -24.403,-10.387 0,-10.387" style="fill:rgb(139,98,32);"/>
            </g>
        </g>
        <g transform="matrix(1,0,0,1,754.899,-3.01452)">
            <g transform="matrix(0.944028,0,0,0.944028,1159.4,101.186)">
                <path d="M0,10.87L0,-26.575C0,-12.08 -40.345,-0.241 -90.111,-0.241C-139.879,-0.241 -180.224,-12.08 -180.224,-26.575L-180.224,10.87C-180.224,25.605 -139.879,37.445 -90.111,37.445C-40.345,37.445 0,25.605 0,10.87" style="fill:rgb(139,98,32);"/>
            </g>
            <g transform="matrix(0.944028,0,0,0.944028,1154.5,141.324)">
                <path d="M0,-69.092L10.387,-69.092L10.387,-31.647C10.387,-21.743 -1.211,-13.287 -19.812,-7.972C-36.479,-3.141 -59.671,0 -85.039,0C-110.166,0 -133.358,-3.141 -150.024,-7.972C-168.627,-13.287 -180.225,-21.743 -180.225,-31.647L-180.225,-69.092L-169.838,-69.092C-169.838,-64.26 -161.14,-59.429 -147.128,-55.321C-131.423,-50.732 -109.442,-47.831 -85.039,-47.831C-60.396,-47.831 -38.415,-50.732 -22.709,-55.321C-8.697,-59.429 0,-64.26 0,-69.092M0,-31.647L0,-54.115C-5.073,-50.732 -11.84,-47.831 -19.812,-45.418C-36.479,-40.586 -59.671,-37.444 -85.039,-37.444C-110.166,-37.444 -133.358,-40.586 -150.024,-45.418C-158.239,-47.831 -164.765,-50.732 -169.838,-54.115L-169.838,-31.647C-169.838,-26.816 -161.14,-21.984 -147.128,-17.877C-131.423,-13.287 -109.442,-10.386 -85.039,-10.386C-60.396,-10.386 -38.415,-13.287 -22.709,-17.877C-8.697,-21.984 0,-26.816 0,-31.647" style="fill:rgb(139,98,32);fill-rule:nonzero;"/>
            </g>
            <g transform="matrix(0.944028,0,0,0.944028,1133.17,89.3268)">
                <path d="M0,-27.782C-15.706,-32.372 -37.687,-35.273 -62.33,-35.273C-86.733,-35.273 -108.714,-32.372 -124.419,-27.782C-138.431,-23.675 -147.129,-18.602 -147.129,-14.012C-147.129,-9.18 -138.431,-4.349 -124.419,-0.241C-108.714,4.348 -86.733,7.249 -62.33,7.249C-37.687,7.249 -15.706,4.348 0,-0.241C14.012,-4.349 22.709,-9.18 22.709,-14.012C22.709,-18.602 14.012,-23.675 0,-27.782M-62.33,-45.418C-36.962,-45.418 -13.771,-42.522 2.896,-37.445C21.498,-32.131 33.096,-23.92 33.096,-14.012C33.096,-4.108 21.498,4.107 2.896,9.662C-13.771,14.494 -36.962,17.636 -62.33,17.636C-87.457,17.636 -110.649,14.494 -127.315,9.662C-145.918,4.107 -157.516,-4.108 -157.516,-14.012C-157.516,-23.92 -145.918,-32.131 -127.315,-37.445C-110.649,-42.522 -87.457,-45.418 -62.33,-45.418" style="fill:rgb(213,172,78);fill-rule:nonzero;"/>
            </g>
            <g transform="matrix(0.944028,0,0,0.944028,1133.17,89.0983)">
                <path d="M0,-27.54C-15.706,-32.13 -37.687,-35.031 -62.33,-35.031C-86.733,-35.031 -108.714,-32.13 -124.419,-27.54C-138.431,-23.433 -147.129,-18.36 -147.129,-13.77C-147.129,-8.938 -138.431,-4.107 -124.419,0.001C-108.714,4.59 -86.733,7.491 -62.33,7.491C-37.687,7.491 -15.706,4.59 0,0.001C14.012,-4.107 22.709,-8.938 22.709,-13.77C22.709,-18.36 14.012,-23.433 0,-27.54" style="fill:rgb(238,207,109);"/>
            </g>
            <g transform="matrix(0.944028,0,0,0.944028,1116.75,104.836)">
                <path d="M0,24.641C6.521,23.675 12.318,22.223 17.396,20.775L18.602,20.534L18.602,0C13.047,1.449 6.767,2.897 0,3.863L0,24.641Z" style="fill:rgb(213,172,78);"/>
            </g>
            <g transform="matrix(-0.649296,-0.685277,-0.685277,0.649296,1016.03,116.928)">
                <path d="M-9.091,-21.551C-3.905,-17.481 1.118,-13.584 5.99,-10.547L-9.091,3.741C-13.966,0.708 -19.164,-3.024 -24.35,-7.094L-9.091,-21.551Z" style="fill:rgb(213,172,78);"/>
            </g>
            <g transform="matrix(-0.542242,-0.772763,-0.772763,0.542242,991.628,107.421)">
                <path d="M-5.104,-16.67C-0.329,-13.233 4.086,-10.723 8.144,-9.143L-5.104,0.153C-8.071,2.236 -14.149,0.302 -21.915,-4.873L-5.104,-16.67Z" style="fill:rgb(213,172,78);"/>
            </g>
            <g transform="matrix(0.944028,0,0,0.944028,1074.33,72.6772)">
                <path d="M0,-10.387C24.644,-10.387 46.624,-7.491 62.33,-2.9C72.958,0.241 80.449,3.625 83.587,7.249C84.556,6.038 85.039,4.832 85.039,3.625C85.039,-0.965 76.342,-6.038 62.33,-10.145C46.624,-14.736 24.644,-17.636 0,-17.636C-24.403,-17.636 -46.384,-14.736 -62.089,-10.145C-76.101,-6.038 -84.799,-0.965 -84.799,3.625C-84.799,4.832 -84.315,6.038 -83.346,7.249C-80.208,3.625 -72.718,0.241 -62.089,-2.9C-46.384,-7.491 -24.403,-10.387 0,-10.387" style="fill:rgb(139,98,32);"/>
            </g>
        </g>
        <g transform="matrix(1,0,0,1,555.842,62.7523)">
            <g transform="matrix(0.944028,0,0,0.944028,1159.4,101.186)">
                <path d="M0,10.87L0,-26.575C0,-12.08 -40.345,-0.241 -90.111,-0.241C-139.879,-0.241 -180.224,-12.08 -180.224,-26.575L-180.224,10.87C-180.224,25.605 -139.879,37.445 -90.111,37.445C-40.345,37.445 0,25.605 0,10.87" style="fill:rgb(139,98,32);"/>
            </g>
            <g transform="matrix(0.944028,0,0,0.944028,1154.5,141.324)">
                <path d="M0,-69.092L10.387,-69.092L10.387,-31.647C10.387,-21.743 -1.211,-13.287 -19.812,-7.972C-36.479,-3.141 -59.671,0 -85.039,0C-110.166,0 -133.358,-3.141 -150.024,-7.972C-168.627,-13.287 -180.225,-21.743 -180.225,-31.647L-180.225,-69.092L-169.838,-69.092C-169.838,-64.26 -161.14,-59.429 -147.128,-55.321C-131.423,-50.732 -109.442,-47.831 -85.039,-47.831C-60.396,-47.831 -38.415,-50.732 -22.709,-55.321C-8.697,-59.429 0,-64.26 0,-69.092M0,-31.647L0,-54.115C-5.073,-50.732 -11.84,-47.831 -19.812,-45.418C-36.479,-40.586 -59.671,-37.444 -85.039,-37.444C-110.166,-37.444 -133.358,-40.586 -150.024,-45.418C-158.239,-47.831 -164.765,-50.732 -169.838,-54.115L-169.838,-31.647C-169.838,-26.816 -161.14,-21.984 -147.128,-17.877C-131.423,-13.287 -109.442,-10.386 -85.039,-10.386C-60.396,-10.386 -38.415,-13.287 -22.709,-17.877C-8.697,-21.984 0,-26.816 0,-31.647" style="fill:rgb(139,98,32);fill-rule:nonzero;"/>
            </g>
            <g transform="matrix(0.944028,0,0,0.944028,1133.17,89.3268)">
                <path d="M0,-27.782C-15.706,-32.372 -37.687,-35.273 -62.33,-35.273C-86.733,-35.273 -108.714,-32.372 -124.419,-27.782C-138.431,-23.675 -147.129,-18.602 -147.129,-14.012C-147.129,-9.18 -138.431,-4.349 -124.419,-0.241C-108.714,4.348 -86.733,7.249 -62.33,7.249C-37.687,7.249 -15.706,4.348 0,-0.241C14.012,-4.349 22.709,-9.18 22.709,-14.012C22.709,-18.602 14.012,-23.675 0,-27.782M-62.33,-45.418C-36.962,-45.418 -13.771,-42.522 2.896,-37.445C21.498,-32.131 33.096,-23.92 33.096,-14.012C33.096,-4.108 21.498,4.107 2.896,9.662C-13.771,14.494 -36.962,17.636 -62.33,17.636C-87.457,17.636 -110.649,14.494 -127.315,9.662C-145.918,4.107 -157.516,-4.108 -157.516,-14.012C-157.516,-23.92 -145.918,-32.131 -127.315,-37.445C-110.649,-42.522 -87.457,-45.418 -62.33,-45.418" style="fill:rgb(213,172,78);fill-rule:nonzero;"/>
            </g>
            <g transform="matrix(0.944028,0,0,0.944028,1133.17,89.0983)">
                <path d="M0,-27.54C-15.706,-32.13 -37.687,-35.031 -62.33,-35.031C-86.733,-35.031 -108.714,-32.13 -124.419,-27.54C-138.431,-23.433 -147.129,-18.36 -147.129,-13.77C-147.129,-8.938 -138.431,-4.107 -124.419,0.001C-108.714,4.59 -86.733,7.491 -62.33,7.491C-37.687,7.491 -15.706,4.59 0,0.001C14.012,-4.107 22.709,-8.938 22.709,-13.77C22.709,-18.36 14.012,-23.433 0,-27.54" style="fill:rgb(238,207,109);"/>
            </g>
            <g transform="matrix(0.944028,0,0,0.944028,1116.75,104.836)">
                <path d="M0,24.641C6.521,23.675 12.318,22.223 17.396,20.775L18.602,20.534L18.602,0C13.047,1.449 6.767,2.897 0,3.863L0,24.641Z" style="fill:rgb(213,172,78);"/>
            </g>
            <g transform="matrix(-0.649296,-0.685277,-0.685277,0.649296,1016.03,116.928)">
                <path d="M-9.091,-21.551C-3.905,-17.481 1.118,-13.584 5.99,-10.547L-9.091,3.741C-13.966,0.708 -19.164,-3.024 -24.35,-7.094L-9.091,-21.551Z" style="fill:rgb(213,172,78);"/>
            </g>
            <g transform="matrix(-0.542242,-0.772763,-0.772763,0.542242,991.628,107.421)">
                <path d="M-5.104,-16.67C-0.329,-13.233 4.086,-10.723 8.144,-9.143L-5.104,0.153C-8.071,2.236 -14.149,0.302 -21.915,-4.873L-5.104,-16.67Z" style="fill:rgb(213,172,78);"/>
            </g>
            <g transform="matrix(0.944028,0,0,0.944028,1074.33,72.6772)">
                <path d="M0,-10.387C24.644,-10.387 46.624,-7.491 62.33,-2.9C72.958,0.241 80.449,3.625 83.587,7.249C84.556,6.038 85.039,4.832 85.039,3.625C85.039,-0.965 76.342,-6.038 62.33,-10.145C46.624,-14.736 24.644,-17.636 0,-17.636C-24.403,-17.636 -46.384,-14.736 -62.089,-10.145C-76.101,-6.038 -84.799,-0.965 -84.799,3.625C-84.799,4.832 -84.315,6.038 -83.346,7.249C-80.208,3.625 -72.718,0.241 -62.089,-2.9C-46.384,-7.491 -24.403,-10.387 0,-10.387" style="fill:rgb(139,98,32);"/>
            </g>
        </g>
        <g transform="matrix(0.929541,0.164752,-0.164752,0.929541,1477.19,-114.15)">
            <path d="M0,235.792C0,235.792 25.852,81.897 127.803,26.092L102.193,25.368C102.193,25.368 146.404,0 207.282,0.728C203.662,14.494 198.344,35.997 199.796,53.633C188.922,46.388 176.604,40.345 167.424,38.173C166.941,37.932 166.7,37.69 166.217,37.69C166.217,37.69 165.489,37.932 164.282,38.414C148.34,44.453 50.737,86.487 0,235.792" style="fill:rgb(139,98,32);"/>
        </g>
        <g transform="matrix(1,0,0,1,576.853,15.3159)">
            <g transform="matrix(0.944028,0,0,0.944028,1159.4,101.186)">
                <path d="M0,10.87L0,-26.575C0,-12.08 -40.345,-0.241 -90.111,-0.241C-139.879,-0.241 -180.224,-12.08 -180.224,-26.575L-180.224,10.87C-180.224,25.605 -139.879,37.445 -90.111,37.445C-40.345,37.445 0,25.605 0,10.87" style="fill:rgb(139,98,32);"/>
            </g>
            <g transform="matrix(0.944028,0,0,0.944028,1154.5,141.324)">
                <path d="M0,-69.092L10.387,-69.092L10.387,-31.647C10.387,-21.743 -1.211,-13.287 -19.812,-7.972C-36.479,-3.141 -59.671,0 -85.039,0C-110.166,0 -133.358,-3.141 -150.024,-7.972C-168.627,-13.287 -180.225,-21.743 -180.225,-31.647L-180.225,-69.092L-169.838,-69.092C-169.838,-64.26 -161.14,-59.429 -147.128,-55.321C-131.423,-50.732 -109.442,-47.831 -85.039,-47.831C-60.396,-47.831 -38.415,-50.732 -22.709,-55.321C-8.697,-59.429 0,-64.26 0,-69.092M0,-31.647L0,-54.115C-5.073,-50.732 -11.84,-47.831 -19.812,-45.418C-36.479,-40.586 -59.671,-37.444 -85.039,-37.444C-110.166,-37.444 -133.358,-40.586 -150.024,-45.418C-158.239,-47.831 -164.765,-50.732 -169.838,-54.115L-169.838,-31.647C-169.838,-26.816 -161.14,-21.984 -147.128,-17.877C-131.423,-13.287 -109.442,-10.386 -85.039,-10.386C-60.396,-10.386 -38.415,-13.287 -22.709,-17.877C-8.697,-21.984 0,-26.816 0,-31.647" style="fill:rgb(139,98,32);fill-rule:nonzero;"/>
            </g>
            <g transform="matrix(0.944028,0,0,0.944028,1133.17,89.3268)">
                <path d="M0,-27.782C-15.706,-32.372 -37.687,-35.273 -62.33,-35.273C-86.733,-35.273 -108.714,-32.372 -124.419,-27.782C-138.431,-23.675 -147.129,-18.602 -147.129,-14.012C-147.129,-9.18 -138.431,-4.349 -124.419,-0.241C-108.714,4.348 -86.733,7.249 -62.33,7.249C-37.687,7.249 -15.706,4.348 0,-0.241C14.012,-4.349 22.709,-9.18 22.709,-14.012C22.709,-18.602 14.012,-23.675 0,-27.782M-62.33,-45.418C-36.962,-45.418 -13.771,-42.522 2.896,-37.445C21.498,-32.131 33.096,-23.92 33.096,-14.012C33.096,-4.108 21.498,4.107 2.896,9.662C-13.771,14.494 -36.962,17.636 -62.33,17.636C-87.457,17.636 -110.649,14.494 -127.315,9.662C-145.918,4.107 -157.516,-4.108 -157.516,-14.012C-157.516,-23.92 -145.918,-32.131 -127.315,-37.445C-110.649,-42.522 -87.457,-45.418 -62.33,-45.418" style="fill:rgb(213,172,78);fill-rule:nonzero;"/>
            </g>
            <g transform="matrix(0.944028,0,0,0.944028,1133.17,89.0983)">
                <path d="M0,-27.54C-15.706,-32.13 -37.687,-35.031 -62.33,-35.031C-86.733,-35.031 -108.714,-32.13 -124.419,-27.54C-138.431,-23.433 -147.129,-18.36 -147.129,-13.77C-147.129,-8.938 -138.431,-4.107 -124.419,0.001C-108.714,4.59 -86.733,7.491 -62.33,7.491C-37.687,7.491 -15.706,4.59 0,0.001C14.012,-4.107 22.709,-8.938 22.709,-13.77C22.709,-18.36 14.012,-23.433 0,-27.54" style="fill:rgb(238,207,109);"/>
            </g>
            <g transform="matrix(0.944028,0,0,0.944028,1116.75,104.836)">
                <path d="M0,24.641C6.521,23.675 12.318,22.223 17.396,20.775L18.602,20.534L18.602,0C13.047,1.449 6.767,2.897 0,3.863L0,24.641Z" style="fill:rgb(213,172,78);"/>
            </g>
            <g transform="matrix(-0.649296,-0.685277,-0.685277,0.649296,1016.03,116.928)">
                <path d="M-9.091,-21.551C-3.905,-17.481 1.118,-13.584 5.99,-10.547L-9.091,3.741C-13.966,0.708 -19.164,-3.024 -24.35,-7.094L-9.091,-21.551Z" style="fill:rgb(213,172,78);"/>
            </g>
            <g transform="matrix(-0.542242,-0.772763,-0.772763,0.542242,991.628,107.421)">
                <path d="M-5.104,-16.67C-0.329,-13.233 4.086,-10.723 8.144,-9.143L-5.104,0.153C-8.071,2.236 -14.149,0.302 -21.915,-4.873L-5.104,-16.67Z" style="fill:rgb(213,172,78);"/>
            </g>
            <g transform="matrix(0.944028,0,0,0.944028,1074.33,72.6772)">
                <path d="M0,-10.387C24.644,-10.387 46.624,-7.491 62.33,-2.9C72.958,0.241 80.449,3.625 83.587,7.249C84.556,6.038 85.039,4.832 85.039,3.625C85.039,-0.965 76.342,-6.038 62.33,-10.145C46.624,-14.736 24.644,-17.636 0,-17.636C-24.403,-17.636 -46.384,-14.736 -62.089,-10.145C-76.101,-6.038 -84.799,-0.965 -84.799,3.625C-84.799,4.832 -84.315,6.038 -83.346,7.249C-80.208,3.625 -72.718,0.241 -62.089,-2.9C-46.384,-7.491 -24.403,-10.387 0,-10.387" style="fill:rgb(139,98,32);"/>
            </g>
        </g>
        <g transform="matrix(1,0,0,1,398.785,84.0758)">
            <g transform="matrix(0.944028,0,0,0.944028,1159.4,101.186)">
                <path d="M0,10.87L0,-26.575C0,-12.08 -40.345,-0.241 -90.111,-0.241C-139.879,-0.241 -180.224,-12.08 -180.224,-26.575L-180.224,10.87C-180.224,25.605 -139.879,37.445 -90.111,37.445C-40.345,37.445 0,25.605 0,10.87" style="fill:rgb(139,98,32);"/>
            </g>
            <g transform="matrix(0.944028,0,0,0.944028,1154.5,141.324)">
                <path d="M0,-69.092L10.387,-69.092L10.387,-31.647C10.387,-21.743 -1.211,-13.287 -19.812,-7.972C-36.479,-3.141 -59.671,0 -85.039,0C-110.166,0 -133.358,-3.141 -150.024,-7.972C-168.627,-13.287 -180.225,-21.743 -180.225,-31.647L-180.225,-69.092L-169.838,-69.092C-169.838,-64.26 -161.14,-59.429 -147.128,-55.321C-131.423,-50.732 -109.442,-47.831 -85.039,-47.831C-60.396,-47.831 -38.415,-50.732 -22.709,-55.321C-8.697,-59.429 0,-64.26 0,-69.092M0,-31.647L0,-54.115C-5.073,-50.732 -11.84,-47.831 -19.812,-45.418C-36.479,-40.586 -59.671,-37.444 -85.039,-37.444C-110.166,-37.444 -133.358,-40.586 -150.024,-45.418C-158.239,-47.831 -164.765,-50.732 -169.838,-54.115L-169.838,-31.647C-169.838,-26.816 -161.14,-21.984 -147.128,-17.877C-131.423,-13.287 -109.442,-10.386 -85.039,-10.386C-60.396,-10.386 -38.415,-13.287 -22.709,-17.877C-8.697,-21.984 0,-26.816 0,-31.647" style="fill:rgb(139,98,32);fill-rule:nonzero;"/>
            </g>
            <g transform="matrix(0.944028,0,0,0.944028,1133.17,89.3268)">
                <path d="M0,-27.782C-15.706,-32.372 -37.687,-35.273 -62.33,-35.273C-86.733,-35.273 -108.714,-32.372 -124.419,-27.782C-138.431,-23.675 -147.129,-18.602 -147.129,-14.012C-147.129,-9.18 -138.431,-4.349 -124.419,-0.241C-108.714,4.348 -86.733,7.249 -62.33,7.249C-37.687,7.249 -15.706,4.348 0,-0.241C14.012,-4.349 22.709,-9.18 22.709,-14.012C22.709,-18.602 14.012,-23.675 0,-27.782M-62.33,-45.418C-36.962,-45.418 -13.771,-42.522 2.896,-37.445C21.498,-32.131 33.096,-23.92 33.096,-14.012C33.096,-4.108 21.498,4.107 2.896,9.662C-13.771,14.494 -36.962,17.636 -62.33,17.636C-87.457,17.636 -110.649,14.494 -127.315,9.662C-145.918,4.107 -157.516,-4.108 -157.516,-14.012C-157.516,-23.92 -145.918,-32.131 -127.315,-37.445C-110.649,-42.522 -87.457,-45.418 -62.33,-45.418" style="fill:rgb(213,172,78);fill-rule:nonzero;"/>
            </g>
            <g transform="matrix(0.944028,0,0,0.944028,1133.17,89.0983)">
                <path d="M0,-27.54C-15.706,-32.13 -37.687,-35.031 -62.33,-35.031C-86.733,-35.031 -108.714,-32.13 -124.419,-27.54C-138.431,-23.433 -147.129,-18.36 -147.129,-13.77C-147.129,-8.938 -138.431,-4.107 -124.419,0.001C-108.714,4.59 -86.733,7.491 -62.33,7.491C-37.687,7.491 -15.706,4.59 0,0.001C14.012,-4.107 22.709,-8.938 22.709,-13.77C22.709,-18.36 14.012,-23.433 0,-27.54" style="fill:rgb(238,207,109);"/>
            </g>
            <g transform="matrix(0.944028,0,0,0.944028,1116.75,104.836)">
                <path d="M0,24.641C6.521,23.675 12.318,22.223 17.396,20.775L18.602,20.534L18.602,0C13.047,1.449 6.767,2.897 0,3.863L0,24.641Z" style="fill:rgb(213,172,78);"/>
            </g>
            <g transform="matrix(-0.649296,-0.685277,-0.685277,0.649296,1016.03,116.928)">
                <path d="M-9.091,-21.551C-3.905,-17.481 1.118,-13.584 5.99,-10.547L-9.091,3.741C-13.966,0.708 -19.164,-3.024 -24.35,-7.094L-9.091,-21.551Z" style="fill:rgb(213,172,78);"/>
            </g>
            <g transform="matrix(-0.542242,-0.772763,-0.772763,0.542242,991.628,107.421)">
                <path d="M-5.104,-16.67C-0.329,-13.233 4.086,-10.723 8.144,-9.143L-5.104,0.153C-8.071,2.236 -14.149,0.302 -21.915,-4.873L-5.104,-16.67Z" style="fill:rgb(213,172,78);"/>
            </g>
            <g transform="matrix(0.944028,0,0,0.944028,1074.33,72.6772)">
                <path d="M0,-10.387C24.644,-10.387 46.624,-7.491 62.33,-2.9C72.958,0.241 80.449,3.625 83.587,7.249C84.556,6.038 85.039,4.832 85.039,3.625C85.039,-0.965 76.342,-6.038 62.33,-10.145C46.624,-14.736 24.644,-17.636 0,-17.636C-24.403,-17.636 -46.384,-14.736 -62.089,-10.145C-76.101,-6.038 -84.799,-0.965 -84.799,3.625C-84.799,4.832 -84.315,6.038 -83.346,7.249C-80.208,3.625 -72.718,0.241 -62.089,-2.9C-46.384,-7.491 -24.403,-10.387 0,-10.387" style="fill:rgb(139,98,32);"/>
            </g>
        </g>
        <g transform="matrix(1,0,0,1,541.139,-32.1204)">
            <g transform="matrix(0.944028,0,0,0.944028,1159.4,101.186)">
                <path d="M0,10.87L0,-26.575C0,-12.08 -40.345,-0.241 -90.111,-0.241C-139.879,-0.241 -180.224,-12.08 -180.224,-26.575L-180.224,10.87C-180.224,25.605 -139.879,37.445 -90.111,37.445C-40.345,37.445 0,25.605 0,10.87" style="fill:rgb(139,98,32);"/>
            </g>
            <g transform="matrix(0.944028,0,0,0.944028,1154.5,141.324)">
                <path d="M0,-69.092L10.387,-69.092L10.387,-31.647C10.387,-21.743 -1.211,-13.287 -19.812,-7.972C-36.479,-3.141 -59.671,0 -85.039,0C-110.166,0 -133.358,-3.141 -150.024,-7.972C-168.627,-13.287 -180.225,-21.743 -180.225,-31.647L-180.225,-69.092L-169.838,-69.092C-169.838,-64.26 -161.14,-59.429 -147.128,-55.321C-131.423,-50.732 -109.442,-47.831 -85.039,-47.831C-60.396,-47.831 -38.415,-50.732 -22.709,-55.321C-8.697,-59.429 0,-64.26 0,-69.092M0,-31.647L0,-54.115C-5.073,-50.732 -11.84,-47.831 -19.812,-45.418C-36.479,-40.586 -59.671,-37.444 -85.039,-37.444C-110.166,-37.444 -133.358,-40.586 -150.024,-45.418C-158.239,-47.831 -164.765,-50.732 -169.838,-54.115L-169.838,-31.647C-169.838,-26.816 -161.14,-21.984 -147.128,-17.877C-131.423,-13.287 -109.442,-10.386 -85.039,-10.386C-60.396,-10.386 -38.415,-13.287 -22.709,-17.877C-8.697,-21.984 0,-26.816 0,-31.647" style="fill:rgb(139,98,32);fill-rule:nonzero;"/>
            </g>
            <g transform="matrix(0.944028,0,0,0.944028,1133.17,89.3268)">
                <path d="M0,-27.782C-15.706,-32.372 -37.687,-35.273 -62.33,-35.273C-86.733,-35.273 -108.714,-32.372 -124.419,-27.782C-138.431,-23.675 -147.129,-18.602 -147.129,-14.012C-147.129,-9.18 -138.431,-4.349 -124.419,-0.241C-108.714,4.348 -86.733,7.249 -62.33,7.249C-37.687,7.249 -15.706,4.348 0,-0.241C14.012,-4.349 22.709,-9.18 22.709,-14.012C22.709,-18.602 14.012,-23.675 0,-27.782M-62.33,-45.418C-36.962,-45.418 -13.771,-42.522 2.896,-37.445C21.498,-32.131 33.096,-23.92 33.096,-14.012C33.096,-4.108 21.498,4.107 2.896,9.662C-13.771,14.494 -36.962,17.636 -62.33,17.636C-87.457,17.636 -110.649,14.494 -127.315,9.662C-145.918,4.107 -157.516,-4.108 -157.516,-14.012C-157.516,-23.92 -145.918,-32.131 -127.315,-37.445C-110.649,-42.522 -87.457,-45.418 -62.33,-45.418" style="fill:rgb(213,172,78);fill-rule:nonzero;"/>
            </g>
            <g transform="matrix(0.944028,0,0,0.944028,1133.17,89.0983)">
                <path d="M0,-27.54C-15.706,-32.13 -37.687,-35.031 -62.33,-35.031C-86.733,-35.031 -108.714,-32.13 -124.419,-27.54C-138.431,-23.433 -147.129,-18.36 -147.129,-13.77C-147.129,-8.938 -138.431,-4.107 -124.419,0.001C-108.714,4.59 -86.733,7.491 -62.33,7.491C-37.687,7.491 -15.706,4.59 0,0.001C14.012,-4.107 22.709,-8.938 22.709,-13.77C22.709,-18.36 14.012,-23.433 0,-27.54" style="fill:rgb(238,207,109);"/>
            </g>
            <g transform="matrix(0.944028,0,0,0.944028,1116.75,104.836)">
                <path d="M0,24.641C6.521,23.675 12.318,22.223 17.396,20.775L18.602,20.534L18.602,0C13.047,1.449 6.767,2.897 0,3.863L0,24.641Z" style="fill:rgb(213,172,78);"/>
            </g>
            <g transform="matrix(-0.649296,-0.685277,-0.685277,0.649296,1016.03,116.928)">
                <path d="M-9.091,-21.551C-3.905,-17.481 1.118,-13.584 5.99,-10.547L-9.091,3.741C-13.966,0.708 -19.164,-3.024 -24.35,-7.094L-9.091,-21.551Z" style="fill:rgb(213,172,78);"/>
            </g>
            <g transform="matrix(-0.542242,-0.772763,-0.772763,0.542242,991.628,107.421)">
                <path d="M-5.104,-16.67C-0.329,-13.233 4.086,-10.723 8.144,-9.143L-5.104,0.153C-8.071,2.236 -14.149,0.302 -21.915,-4.873L-5.104,-16.67Z" style="fill:rgb(213,172,78);"/>
            </g>
            <g transform="matrix(0.944028,0,0,0.944028,1074.33,72.6772)">
                <path d="M0,-10.387C24.644,-10.387 46.624,-7.491 62.33,-2.9C72.958,0.241 80.449,3.625 83.587,7.249C84.556,6.038 85.039,4.832 85.039,3.625C85.039,-0.965 76.342,-6.038 62.33,-10.145C46.624,-14.736 24.644,-17.636 0,-17.636C-24.403,-17.636 -46.384,-14.736 -62.089,-10.145C-76.101,-6.038 -84.799,-0.965 -84.799,3.625C-84.799,4.832 -84.315,6.038 -83.346,7.249C-80.208,3.625 -72.718,0.241 -62.089,-2.9C-46.384,-7.491 -24.403,-10.387 0,-10.387" style="fill:rgb(139,98,32);"/>
            </g>
        </g>
        <g transform="matrix(1,0,0,1,719.196,-49.4509)">
            <g transform="matrix(0.944028,0,0,0.944028,1159.4,101.186)">
                <path d="M0,10.87L0,-26.575C0,-12.08 -40.345,-0.241 -90.111,-0.241C-139.879,-0.241 -180.224,-12.08 -180.224,-26.575L-180.224,10.87C-180.224,25.605 -139.879,37.445 -90.111,37.445C-40.345,37.445 0,25.605 0,10.87" style="fill:rgb(139,98,32);"/>
            </g>
            <g transform="matrix(0.944028,0,0,0.944028,1154.5,141.324)">
                <path d="M0,-69.092L10.387,-69.092L10.387,-31.647C10.387,-21.743 -1.211,-13.287 -19.812,-7.972C-36.479,-3.141 -59.671,0 -85.039,0C-110.166,0 -133.358,-3.141 -150.024,-7.972C-168.627,-13.287 -180.225,-21.743 -180.225,-31.647L-180.225,-69.092L-169.838,-69.092C-169.838,-64.26 -161.14,-59.429 -147.128,-55.321C-131.423,-50.732 -109.442,-47.831 -85.039,-47.831C-60.396,-47.831 -38.415,-50.732 -22.709,-55.321C-8.697,-59.429 0,-64.26 0,-69.092M0,-31.647L0,-54.115C-5.073,-50.732 -11.84,-47.831 -19.812,-45.418C-36.479,-40.586 -59.671,-37.444 -85.039,-37.444C-110.166,-37.444 -133.358,-40.586 -150.024,-45.418C-158.239,-47.831 -164.765,-50.732 -169.838,-54.115L-169.838,-31.647C-169.838,-26.816 -161.14,-21.984 -147.128,-17.877C-131.423,-13.287 -109.442,-10.386 -85.039,-10.386C-60.396,-10.386 -38.415,-13.287 -22.709,-17.877C-8.697,-21.984 0,-26.816 0,-31.647" style="fill:rgb(139,98,32);fill-rule:nonzero;"/>
            </g>
            <g transform="matrix(0.944028,0,0,0.944028,1133.17,89.3268)">
                <path d="M0,-27.782C-15.706,-32.372 -37.687,-35.273 -62.33,-35.273C-86.733,-35.273 -108.714,-32.372 -124.419,-27.782C-138.431,-23.675 -147.129,-18.602 -147.129,-14.012C-147.129,-9.18 -138.431,-4.349 -124.419,-0.241C-108.714,4.348 -86.733,7.249 -62.33,7.249C-37.687,7.249 -15.706,4.348 0,-0.241C14.012,-4.349 22.709,-9.18 22.709,-14.012C22.709,-18.602 14.012,-23.675 0,-27.782M-62.33,-45.418C-36.962,-45.418 -13.771,-42.522 2.896,-37.445C21.498,-32.131 33.096,-23.92 33.096,-14.012C33.096,-4.108 21.498,4.107 2.896,9.662C-13.771,14.494 -36.962,17.636 -62.33,17.636C-87.457,17.636 -110.649,14.494 -127.315,9.662C-145.918,4.107 -157.516,-4.108 -157.516,-14.012C-157.516,-23.92 -145.918,-32.131 -127.315,-37.445C-110.649,-42.522 -87.457,-45.418 -62.33,-45.418" style="fill:rgb(213,172,78);fill-rule:nonzero;"/>
            </g>
            <g transform="matrix(0.944028,0,0,0.944028,1133.17,89.0983)">
                <path d="M0,-27.54C-15.706,-32.13 -37.687,-35.031 -62.33,-35.031C-86.733,-35.031 -108.714,-32.13 -124.419,-27.54C-138.431,-23.433 -147.129,-18.36 -147.129,-13.77C-147.129,-8.938 -138.431,-4.107 -124.419,0.001C-108.714,4.59 -86.733,7.491 -62.33,7.491C-37.687,7.491 -15.706,4.59 0,0.001C14.012,-4.107 22.709,-8.938 22.709,-13.77C22.709,-18.36 14.012,-23.433 0,-27.54" style="fill:rgb(238,207,109);"/>
            </g>
            <g transform="matrix(0.944028,0,0,0.944028,1116.75,104.836)">
                <path d="M0,24.641C6.521,23.675 12.318,22.223 17.396,20.775L18.602,20.534L18.602,0C13.047,1.449 6.767,2.897 0,3.863L0,24.641Z" style="fill:rgb(213,172,78);"/>
            </g>
            <g transform="matrix(-0.649296,-0.685277,-0.685277,0.649296,1016.03,116.928)">
                <path d="M-9.091,-21.551C-3.905,-17.481 1.118,-13.584 5.99,-10.547L-9.091,3.741C-13.966,0.708 -19.164,-3.024 -24.35,-7.094L-9.091,-21.551Z" style="fill:rgb(213,172,78);"/>
            </g>
            <g transform="matrix(-0.542242,-0.772763,-0.772763,0.542242,991.628,107.421)">
                <path d="M-5.104,-16.67C-0.329,-13.233 4.086,-10.723 8.144,-9.143L-5.104,0.153C-8.071,2.236 -14.149,0.302 -21.915,-4.873L-5.104,-16.67Z" style="fill:rgb(213,172,78);"/>
            </g>
            <g transform="matrix(0.944028,0,0,0.944028,1074.33,72.6772)">
                <path d="M0,-10.387C24.644,-10.387 46.624,-7.491 62.33,-2.9C72.958,0.241 80.449,3.625 83.587,7.249C84.556,6.038 85.039,4.832 85.039,3.625C85.039,-0.965 76.342,-6.038 62.33,-10.145C46.624,-14.736 24.644,-17.636 0,-17.636C-24.403,-17.636 -46.384,-14.736 -62.089,-10.145C-76.101,-6.038 -84.799,-0.965 -84.799,3.625C-84.799,4.832 -84.315,6.038 -83.346,7.249C-80.208,3.625 -72.718,0.241 -62.089,-2.9C-46.384,-7.491 -24.403,-10.387 0,-10.387" style="fill:rgb(139,98,32);"/>
            </g>
        </g>
        <g transform="matrix(1,0,0,1,721.196,-109.24)">
            <g transform="matrix(0.944028,0,0,0.944028,1159.4,101.186)">
                <path d="M0,10.87L0,-26.575C0,-12.08 -40.345,-0.241 -90.111,-0.241C-139.879,-0.241 -180.224,-12.08 -180.224,-26.575L-180.224,10.87C-180.224,25.605 -139.879,37.445 -90.111,37.445C-40.345,37.445 0,25.605 0,10.87" style="fill:rgb(139,98,32);"/>
            </g>
            <g transform="matrix(0.944028,0,0,0.944028,1154.5,141.324)">
                <path d="M0,-69.092L10.387,-69.092L10.387,-31.647C10.387,-21.743 -1.211,-13.287 -19.812,-7.972C-36.479,-3.141 -59.671,0 -85.039,0C-110.166,0 -133.358,-3.141 -150.024,-7.972C-168.627,-13.287 -180.225,-21.743 -180.225,-31.647L-180.225,-69.092L-169.838,-69.092C-169.838,-64.26 -161.14,-59.429 -147.128,-55.321C-131.423,-50.732 -109.442,-47.831 -85.039,-47.831C-60.396,-47.831 -38.415,-50.732 -22.709,-55.321C-8.697,-59.429 0,-64.26 0,-69.092M0,-31.647L0,-54.115C-5.073,-50.732 -11.84,-47.831 -19.812,-45.418C-36.479,-40.586 -59.671,-37.444 -85.039,-37.444C-110.166,-37.444 -133.358,-40.586 -150.024,-45.418C-158.239,-47.831 -164.765,-50.732 -169.838,-54.115L-169.838,-31.647C-169.838,-26.816 -161.14,-21.984 -147.128,-17.877C-131.423,-13.287 -109.442,-10.386 -85.039,-10.386C-60.396,-10.386 -38.415,-13.287 -22.709,-17.877C-8.697,-21.984 0,-26.816 0,-31.647" style="fill:rgb(139,98,32);fill-rule:nonzero;"/>
            </g>
            <g transform="matrix(0.944028,0,0,0.944028,1133.17,89.3268)">
                <path d="M0,-27.782C-15.706,-32.372 -37.687,-35.273 -62.33,-35.273C-86.733,-35.273 -108.714,-32.372 -124.419,-27.782C-138.431,-23.675 -147.129,-18.602 -147.129,-14.012C-147.129,-9.18 -138.431,-4.349 -124.419,-0.241C-108.714,4.348 -86.733,7.249 -62.33,7.249C-37.687,7.249 -15.706,4.348 0,-0.241C14.012,-4.349 22.709,-9.18 22.709,-14.012C22.709,-18.602 14.012,-23.675 0,-27.782M-62.33,-45.418C-36.962,-45.418 -13.771,-42.522 2.896,-37.445C21.498,-32.131 33.096,-23.92 33.096,-14.012C33.096,-4.108 21.498,4.107 2.896,9.662C-13.771,14.494 -36.962,17.636 -62.33,17.636C-87.457,17.636 -110.649,14.494 -127.315,9.662C-145.918,4.107 -157.516,-4.108 -157.516,-14.012C-157.516,-23.92 -145.918,-32.131 -127.315,-37.445C-110.649,-42.522 -87.457,-45.418 -62.33,-45.418" style="fill:rgb(213,172,78);fill-rule:nonzero;"/>
            </g>
            <g transform="matrix(0.944028,0,0,0.944028,1133.17,89.0983)">
                <path d="M0,-27.54C-15.706,-32.13 -37.687,-35.031 -62.33,-35.031C-86.733,-35.031 -108.714,-32.13 -124.419,-27.54C-138.431,-23.433 -147.129,-18.36 -147.129,-13.77C-147.129,-8.938 -138.431,-4.107 -124.419,0.001C-108.714,4.59 -86.733,7.491 -62.33,7.491C-37.687,7.491 -15.706,4.59 0,0.001C14.012,-4.107 22.709,-8.938 22.709,-13.77C22.709,-18.36 14.012,-23.433 0,-27.54" style="fill:rgb(238,207,109);"/>
            </g>
            <g transform="matrix(0.944028,0,0,0.944028,1116.75,104.836)">
                <path d="M0,24.641C6.521,23.675 12.318,22.223 17.396,20.775L18.602,20.534L18.602,0C13.047,1.449 6.767,2.897 0,3.863L0,24.641Z" style="fill:rgb(213,172,78);"/>
            </g>
            <g transform="matrix(-0.649296,-0.685277,-0.685277,0.649296,1016.03,116.928)">
                <path d="M-9.091,-21.551C-3.905,-17.481 1.118,-13.584 5.99,-10.547L-9.091,3.741C-13.966,0.708 -19.164,-3.024 -24.35,-7.094L-9.091,-21.551Z" style="fill:rgb(213,172,78);"/>
            </g>
            <g transform="matrix(-0.542242,-0.772763,-0.772763,0.542242,991.628,107.421)">
                <path d="M-5.104,-16.67C-0.329,-13.233 4.086,-10.723 8.144,-9.143L-5.104,0.153C-8.071,2.236 -14.149,0.302 -21.915,-4.873L-5.104,-16.67Z" style="fill:rgb(213,172,78);"/>
            </g>
            <g transform="matrix(0.944028,0,0,0.944028,1074.33,72.6772)">
                <path d="M0,-10.387C24.644,-10.387 46.624,-7.491 62.33,-2.9C72.958,0.241 80.449,3.625 83.587,7.249C84.556,6.038 85.039,4.832 85.039,3.625C85.039,-0.965 76.342,-6.038 62.33,-10.145C46.624,-14.736 24.644,-17.636 0,-17.636C-24.403,-17.636 -46.384,-14.736 -62.089,-10.145C-76.101,-6.038 -84.799,-0.965 -84.799,3.625C-84.799,4.832 -84.315,6.038 -83.346,7.249C-80.208,3.625 -72.718,0.241 -62.089,-2.9C-46.384,-7.491 -24.403,-10.387 0,-10.387" style="fill:rgb(139,98,32);"/>
            </g>
        </g>
    </g>
    <g transform="matrix(9.97801,0,0,9.97801,-1234.26,-537.981)">
        <path d="M126.049,77.004L126.649,77.004L126.649,71.604L126.049,71.604L126.049,69.636L131.557,69.636C132.557,69.636 133.337,69.84 133.897,70.248C134.457,70.656 134.737,71.24 134.737,72C134.737,72.472 134.625,72.87 134.401,73.194C134.177,73.518 133.915,73.762 133.615,73.926C133.315,74.09 133.025,74.2 132.745,74.256L132.745,74.376C133.313,74.432 133.825,74.612 134.281,74.916C134.737,75.22 134.965,75.764 134.965,76.548C134.965,77.388 134.649,78.002 134.017,78.39C133.385,78.778 132.565,78.972 131.557,78.972L126.049,78.972L126.049,77.004ZM130.657,73.572C130.889,73.572 131.063,73.51 131.179,73.386C131.295,73.262 131.353,73.068 131.353,72.804L131.353,72.372C131.353,72.108 131.295,71.914 131.179,71.79C131.063,71.666 130.889,71.604 130.657,71.604L130.009,71.604L130.009,73.572L130.657,73.572ZM130.741,77.004C130.973,77.004 131.147,76.942 131.263,76.818C131.379,76.694 131.437,76.5 131.437,76.236L131.437,75.708C131.437,75.444 131.379,75.25 131.263,75.126C131.147,75.002 130.973,74.94 130.741,74.94L130.009,74.94L130.009,77.004L130.741,77.004Z" style="fill:white;fill-rule:nonzero;"/>
        <path d="M126.448,71.804L126.049,71.804C125.938,71.804 125.848,71.714 125.848,71.604L125.848,69.636C125.848,69.525 125.938,69.435 126.049,69.435L131.557,69.435C132.608,69.435 133.426,69.657 134.015,70.086C134.627,70.532 134.937,71.169 134.937,72C134.937,72.517 134.811,72.953 134.566,73.308C134.322,73.66 134.037,73.923 133.711,74.102C133.587,74.169 133.464,74.229 133.343,74.279C133.719,74.377 134.069,74.534 134.392,74.749C134.897,75.085 135.165,75.68 135.165,76.548C135.165,77.467 134.813,78.136 134.122,78.561C133.462,78.965 132.608,79.172 131.557,79.172L126.049,79.172C125.938,79.172 125.848,79.082 125.848,78.972L125.848,77.004C125.848,76.893 125.938,76.803 126.049,76.803L126.448,76.803L126.448,71.804ZM126.249,71.403L126.649,71.403C126.76,71.403 126.849,71.493 126.849,71.604L126.849,77.004C126.849,77.114 126.76,77.204 126.649,77.204L126.249,77.204L126.249,78.771L131.557,78.771C132.521,78.771 133.307,78.59 133.912,78.219C134.484,77.868 134.764,77.308 134.764,76.548C134.764,75.847 134.577,75.354 134.17,75.083C133.741,74.797 133.259,74.628 132.725,74.575C132.623,74.565 132.544,74.479 132.544,74.376L132.544,74.256C132.544,74.16 132.612,74.078 132.705,74.059C132.967,74.007 133.238,73.903 133.519,73.75C133.793,73.6 134.031,73.376 134.236,73.08C134.438,72.787 134.536,72.426 134.536,72C134.536,71.311 134.286,70.78 133.779,70.41C133.247,70.023 132.506,69.836 131.557,69.836L126.249,69.836L126.249,71.403ZM130.741,77.204C131.039,77.204 131.26,77.114 131.409,76.955C131.553,76.801 131.637,76.564 131.637,76.236L131.637,75.708C131.637,75.38 131.553,75.143 131.409,74.989C131.26,74.829 131.039,74.739 130.741,74.739C130.741,74.739 130.009,74.739 130.009,74.739C129.898,74.739 129.808,74.829 129.808,74.94L129.808,77.004C129.808,77.114 129.898,77.204 130.009,77.204L130.741,77.204ZM130.209,76.803L130.741,76.803C130.906,76.803 131.034,76.769 131.116,76.681C131.204,76.587 131.236,76.436 131.236,76.236C131.236,76.236 131.236,75.708 131.236,75.708C131.236,75.507 131.204,75.357 131.116,75.263C131.034,75.174 130.906,75.14 130.741,75.14L130.209,75.14L130.209,76.803ZM130.657,73.772C130.955,73.772 131.176,73.682 131.325,73.523C131.469,73.369 131.553,73.132 131.553,72.804C131.553,72.804 131.553,72.372 131.553,72.372C131.553,72.044 131.469,71.807 131.325,71.653C131.176,71.493 130.955,71.403 130.657,71.403L130.009,71.403C129.898,71.403 129.808,71.493 129.808,71.604L129.808,73.572C129.808,73.682 129.898,73.772 130.009,73.772L130.657,73.772ZM130.209,73.371L130.657,73.371C130.822,73.371 130.95,73.337 131.032,73.249C131.12,73.155 131.152,73.004 131.152,72.804L131.152,72.372C131.152,72.171 131.12,72.021 131.032,71.927C130.95,71.838 130.822,71.804 130.657,71.804L130.209,71.804L130.209,73.371Z"/>
        <path d="M143.221,77.004L143.221,78.972L139.933,78.972L139.933,78.036C139.357,78.772 138.637,79.14 137.773,79.14C137.109,79.14 136.611,78.932 136.279,78.516C135.947,78.1 135.781,77.528 135.781,76.8L135.781,74.268L135.253,74.268L135.253,72.3L138.541,72.3L138.541,76.236C138.541,76.5 138.599,76.694 138.715,76.818C138.831,76.942 139.005,77.004 139.237,77.004C139.469,77.004 139.643,76.942 139.759,76.818C139.875,76.694 139.933,76.5 139.933,76.236L139.933,74.268L139.285,74.268L139.285,72.3L142.693,72.3L142.693,77.004L143.221,77.004Z" style="fill:white;fill-rule:nonzero;"/>
        <path d="M135.58,74.468L135.253,74.468C135.142,74.468 135.052,74.378 135.052,74.268L135.052,72.3C135.052,72.189 135.142,72.099 135.253,72.099L138.541,72.099C138.652,72.099 138.741,72.189 138.741,72.3L138.741,76.236C138.741,76.436 138.773,76.587 138.861,76.681C138.944,76.769 139.071,76.803 139.237,76.803C139.402,76.803 139.53,76.769 139.612,76.681C139.7,76.587 139.732,76.436 139.732,76.236L139.732,74.468L139.285,74.468C139.174,74.468 139.084,74.378 139.084,74.268L139.084,72.3C139.084,72.189 139.174,72.099 139.285,72.099L142.693,72.099C142.804,72.099 142.893,72.189 142.893,72.3L142.893,76.803L143.221,76.803C143.332,76.803 143.421,76.893 143.421,77.004L143.421,78.972C143.421,79.082 143.332,79.172 143.221,79.172L139.933,79.172C139.822,79.172 139.732,79.082 139.732,78.972L139.732,78.556C139.182,79.08 138.528,79.34 137.773,79.34C137.038,79.34 136.49,79.101 136.122,78.641C135.766,78.194 135.58,77.582 135.58,76.8L135.58,74.468ZM138.34,72.5L135.453,72.5L135.453,74.067L135.781,74.067C135.892,74.067 135.981,74.157 135.981,74.268C135.981,74.268 135.981,76.8 135.981,76.8C135.981,77.474 136.128,78.005 136.435,78.391C136.732,78.762 137.18,78.939 137.773,78.939C138.574,78.939 139.241,78.595 139.775,77.912C139.828,77.845 139.917,77.818 139.998,77.846C140.079,77.874 140.133,77.95 140.133,78.036L140.133,78.771L143.02,78.771L143.02,77.204L142.693,77.204C142.582,77.204 142.492,77.114 142.492,77.004L142.492,72.5L139.485,72.5L139.485,74.067L139.933,74.067C140.044,74.067 140.133,74.157 140.133,74.268L140.133,76.236C140.133,76.564 140.049,76.801 139.905,76.955C139.756,77.114 139.535,77.204 139.237,77.204C138.938,77.204 138.718,77.114 138.568,76.955C138.424,76.801 138.34,76.564 138.34,76.236L138.34,72.5Z"/>
        <path d="M145.921,79.14C145.105,79.14 144.491,78.836 144.079,78.228C143.667,77.62 143.461,76.756 143.461,75.636C143.461,74.516 143.667,73.652 144.079,73.044C144.491,72.436 145.105,72.132 145.921,72.132C146.329,72.132 146.691,72.232 147.007,72.432C147.323,72.632 147.581,72.86 147.781,73.116L147.781,71.604L147.073,71.604L147.073,69.636L150.541,69.636L150.541,77.004L151.069,77.004L151.069,78.972L147.781,78.972L147.781,78.156C147.581,78.412 147.323,78.64 147.007,78.84C146.691,79.04 146.329,79.14 145.921,79.14ZM147.085,77.004C147.317,77.004 147.491,76.942 147.607,76.818C147.723,76.694 147.781,76.5 147.781,76.236L147.781,75.036C147.781,74.772 147.723,74.578 147.607,74.454C147.491,74.33 147.317,74.268 147.085,74.268C146.853,74.268 146.679,74.33 146.563,74.454C146.447,74.578 146.389,74.772 146.389,75.036L146.389,76.236C146.389,76.5 146.447,76.694 146.563,76.818C146.679,76.942 146.853,77.004 147.085,77.004Z" style="fill:white;fill-rule:nonzero;"/>
        <path d="M147.58,71.804L147.073,71.804C146.962,71.804 146.872,71.714 146.872,71.604L146.872,69.636C146.872,69.525 146.962,69.435 147.073,69.435L150.541,69.435C150.652,69.435 150.741,69.525 150.741,69.636L150.741,76.803L151.069,76.803C151.18,76.803 151.269,76.893 151.269,77.004L151.269,78.972C151.269,79.082 151.18,79.172 151.069,79.172L147.781,79.172C147.67,79.172 147.58,79.082 147.58,78.972L147.58,78.66C147.441,78.784 147.286,78.9 147.114,79.009C146.767,79.229 146.369,79.34 145.921,79.34C145.03,79.34 144.363,79.004 143.913,78.34C143.483,77.705 143.26,76.805 143.26,75.636C143.26,74.466 143.483,73.566 143.913,72.931C144.363,72.268 145.03,71.931 145.921,71.931C146.369,71.931 146.767,72.043 147.114,72.262C147.286,72.371 147.441,72.487 147.58,72.612L147.58,71.804ZM150.34,69.836L147.273,69.836L147.273,71.403L147.781,71.403C147.892,71.403 147.981,71.493 147.981,71.604L147.981,73.116C147.981,73.201 147.927,73.277 147.846,73.305C147.765,73.333 147.676,73.307 147.623,73.239C147.436,73 147.195,72.788 146.9,72.601C146.615,72.421 146.288,72.332 145.921,72.332C145.179,72.332 144.619,72.604 144.245,73.156C143.851,73.737 143.661,74.565 143.661,75.636C143.661,76.706 143.851,77.534 144.245,78.115C144.619,78.668 145.179,78.939 145.921,78.939C146.288,78.939 146.615,78.851 146.9,78.67C147.195,78.484 147.436,78.271 147.623,78.032C147.676,77.965 147.765,77.938 147.846,77.966C147.927,77.994 147.981,78.07 147.981,78.156L147.981,78.771L150.868,78.771L150.868,77.204L150.541,77.204C150.43,77.204 150.34,77.114 150.34,77.004L150.34,69.836ZM147.085,77.204C147.383,77.204 147.604,77.114 147.753,76.955C147.897,76.801 147.981,76.564 147.981,76.236C147.981,76.236 147.981,75.036 147.981,75.036C147.981,74.708 147.897,74.471 147.753,74.317C147.604,74.157 147.383,74.067 147.085,74.067C146.786,74.067 146.566,74.157 146.416,74.317C146.272,74.471 146.188,74.708 146.188,75.036L146.188,76.236C146.188,76.564 146.272,76.801 146.416,76.955C146.566,77.114 146.786,77.204 147.085,77.204ZM147.085,76.803C146.919,76.803 146.792,76.769 146.709,76.681C146.621,76.587 146.589,76.436 146.589,76.236C146.589,76.236 146.589,75.036 146.589,75.036C146.589,74.835 146.621,74.685 146.709,74.591C146.792,74.502 146.919,74.468 147.085,74.468C147.25,74.468 147.378,74.502 147.46,74.591C147.548,74.685 147.58,74.835 147.58,75.036L147.58,76.236C147.58,76.436 147.548,76.587 147.46,76.681C147.378,76.769 147.25,76.803 147.085,76.803Z"/>
        <path d="M154.969,81.804C154.393,81.804 153.843,81.764 153.319,81.684C152.795,81.604 152.389,81.512 152.101,81.408L152.101,79.44C152.949,79.592 153.709,79.668 154.381,79.668C154.837,79.668 155.167,79.598 155.371,79.458C155.575,79.318 155.677,79.056 155.677,78.672L155.677,78.156C155.477,78.412 155.219,78.64 154.903,78.84C154.587,79.04 154.225,79.14 153.817,79.14C153.001,79.14 152.387,78.836 151.975,78.228C151.563,77.62 151.357,76.756 151.357,75.636C151.357,74.516 151.563,73.652 151.975,73.044C152.387,72.436 153.001,72.132 153.817,72.132C154.225,72.132 154.587,72.232 154.903,72.432C155.219,72.632 155.477,72.86 155.677,73.116L155.677,72.3L158.965,72.3L158.965,74.268L158.437,74.268L158.437,78.492C158.437,79.652 158.149,80.494 157.573,81.018C156.997,81.542 156.129,81.804 154.969,81.804ZM154.981,77.004C155.213,77.004 155.387,76.942 155.503,76.818C155.619,76.694 155.677,76.5 155.677,76.236L155.677,75.036C155.677,74.772 155.619,74.578 155.503,74.454C155.387,74.33 155.213,74.268 154.981,74.268C154.749,74.268 154.575,74.33 154.459,74.454C154.343,74.578 154.285,74.772 154.285,75.036L154.285,76.236C154.285,76.5 154.343,76.694 154.459,76.818C154.575,76.942 154.749,77.004 154.981,77.004Z" style="fill:white;fill-rule:nonzero;"/>
        <path d="M155.476,78.66C155.337,78.784 155.182,78.9 155.01,79.009C154.663,79.229 154.265,79.34 153.817,79.34C152.926,79.34 152.259,79.004 151.809,78.34C151.379,77.705 151.156,76.805 151.156,75.636C151.156,74.466 151.379,73.566 151.809,72.931C152.259,72.268 152.926,71.931 153.817,71.931C154.265,71.931 154.663,72.043 155.01,72.262C155.182,72.371 155.337,72.487 155.476,72.612L155.476,72.3C155.476,72.189 155.566,72.099 155.677,72.099L158.965,72.099C159.076,72.099 159.165,72.189 159.165,72.3L159.165,74.268C159.165,74.378 159.076,74.468 158.965,74.468L158.637,74.468L158.637,78.492C158.637,79.722 158.319,80.61 157.708,81.166C157.101,81.718 156.19,82.004 154.969,82.004C154.382,82.004 153.822,81.963 153.289,81.882C152.748,81.799 152.33,81.704 152.033,81.596C151.953,81.568 151.9,81.492 151.9,81.408L151.9,79.44C151.9,79.38 151.927,79.324 151.972,79.286C152.018,79.248 152.078,79.232 152.136,79.242C152.971,79.392 153.719,79.467 154.381,79.467C154.784,79.467 155.077,79.416 155.257,79.292C155.417,79.183 155.476,78.971 155.476,78.672L155.476,78.66ZM155.877,72.5L155.877,73.116C155.877,73.201 155.823,73.277 155.742,73.305C155.661,73.333 155.572,73.307 155.519,73.239C155.332,73 155.091,72.788 154.796,72.601C154.511,72.421 154.184,72.332 153.817,72.332C153.075,72.332 152.515,72.604 152.141,73.156C151.747,73.737 151.557,74.565 151.557,75.636C151.557,76.706 151.747,77.534 152.141,78.115C152.515,78.668 153.075,78.939 153.817,78.939C154.184,78.939 154.511,78.851 154.796,78.67C155.091,78.484 155.332,78.271 155.519,78.032C155.572,77.965 155.661,77.938 155.742,77.966C155.823,77.994 155.877,78.07 155.877,78.156L155.877,78.672C155.877,79.14 155.733,79.452 155.484,79.623C155.256,79.779 154.89,79.868 154.381,79.868C153.761,79.868 153.068,79.805 152.301,79.678L152.301,81.263C152.568,81.346 152.917,81.42 153.349,81.486C153.863,81.564 154.403,81.603 154.969,81.603C156.067,81.603 156.892,81.366 157.438,80.869C157.979,80.377 158.236,79.582 158.236,78.492L158.236,74.268C158.236,74.157 158.326,74.067 158.437,74.067L158.764,74.067L158.764,72.5L155.877,72.5ZM154.981,77.204C155.279,77.204 155.5,77.114 155.649,76.955C155.793,76.801 155.877,76.564 155.877,76.236L155.877,75.036C155.877,74.708 155.793,74.471 155.649,74.317C155.5,74.157 155.279,74.067 154.981,74.067C154.682,74.067 154.462,74.157 154.312,74.317C154.168,74.471 154.084,74.708 154.084,75.036L154.084,76.236C154.084,76.564 154.168,76.801 154.312,76.955C154.462,77.114 154.682,77.204 154.981,77.204ZM154.981,76.803C154.815,76.803 154.688,76.769 154.605,76.681C154.517,76.587 154.485,76.436 154.485,76.236C154.485,76.236 154.485,75.036 154.485,75.036C154.485,74.835 154.517,74.685 154.605,74.591C154.688,74.502 154.815,74.468 154.981,74.468C155.146,74.468 155.274,74.502 155.356,74.591C155.444,74.685 155.476,74.835 155.476,75.036C155.476,75.036 155.476,76.236 155.476,76.236C155.476,76.436 155.444,76.587 155.356,76.681C155.274,76.769 155.146,76.803 154.981,76.803Z"/>
        <path d="M162.877,79.14C161.741,79.14 160.853,78.842 160.213,78.246C159.573,77.65 159.253,76.78 159.253,75.636C159.253,74.492 159.573,73.622 160.213,73.026C160.853,72.43 161.741,72.132 162.877,72.132C164.005,72.132 164.819,72.426 165.319,73.014C165.819,73.602 166.069,74.332 166.069,75.204L166.069,76.068L162.181,76.068L162.181,76.14C162.181,76.436 162.269,76.654 162.445,76.794C162.621,76.934 162.913,77.004 163.321,77.004C163.809,77.004 164.273,76.968 164.713,76.896C165.153,76.824 165.537,76.732 165.865,76.62L165.865,78.54C165.585,78.692 165.175,78.83 164.635,78.954C164.095,79.078 163.509,79.14 162.877,79.14ZM163.573,74.748L163.573,74.604C163.573,74.332 163.515,74.136 163.399,74.016C163.283,73.896 163.109,73.836 162.877,73.836C162.645,73.836 162.471,73.898 162.355,74.022C162.239,74.146 162.181,74.34 162.181,74.604L162.181,74.748L163.573,74.748Z" style="fill:white;fill-rule:nonzero;"/>
        <path d="M162.388,76.268C162.407,76.428 162.464,76.553 162.57,76.637C162.72,76.756 162.972,76.803 163.321,76.803C163.797,76.803 164.251,76.768 164.68,76.698C165.108,76.628 165.481,76.539 165.8,76.43C165.861,76.409 165.929,76.419 165.981,76.457C166.034,76.494 166.065,76.555 166.065,76.62L166.065,78.54C166.065,78.613 166.025,78.681 165.96,78.716C165.669,78.874 165.242,79.02 164.68,79.149C164.126,79.276 163.525,79.34 162.877,79.34C161.682,79.34 160.75,79.02 160.076,78.392C159.399,77.762 159.052,76.845 159.052,75.636C159.052,74.426 159.399,73.509 160.076,72.879C160.75,72.252 161.682,71.931 162.877,71.931C164.078,71.931 164.939,72.258 165.472,72.884C166.001,73.507 166.269,74.28 166.269,75.204L166.269,76.068C166.269,76.178 166.18,76.268 166.069,76.268L162.388,76.268ZM165.868,75.867L165.868,75.204C165.868,74.384 165.636,73.696 165.166,73.144C164.698,72.594 163.932,72.332 162.877,72.332C161.8,72.332 160.956,72.608 160.349,73.172C159.746,73.734 159.453,74.557 159.453,75.636C159.453,76.714 159.746,77.537 160.349,78.099C160.956,78.664 161.8,78.939 162.877,78.939C163.493,78.939 164.064,78.879 164.59,78.758C165.044,78.654 165.402,78.541 165.664,78.417L165.664,76.892C165.39,76.971 165.084,77.038 164.745,77.094C164.295,77.167 163.82,77.204 163.321,77.204C162.853,77.204 162.522,77.111 162.32,76.951C162.101,76.776 161.98,76.509 161.98,76.14L161.98,76.068C161.98,75.957 162.07,75.867 162.181,75.867L165.868,75.867ZM163.573,74.948C163.684,74.948 163.773,74.858 163.773,74.748L163.773,74.604C163.773,74.265 163.687,74.026 163.543,73.876C163.394,73.722 163.174,73.635 162.877,73.635C162.578,73.635 162.358,73.725 162.208,73.885C162.064,74.039 161.98,74.276 161.98,74.604L161.98,74.748C161.98,74.858 162.07,74.948 162.181,74.948L163.573,74.948ZM163.371,74.547C163.366,74.37 163.334,74.237 163.255,74.155C163.171,74.069 163.043,74.036 162.877,74.036C162.711,74.036 162.584,74.07 162.501,74.159C162.422,74.244 162.388,74.375 162.382,74.547L163.371,74.547Z"/>
        <path d="M169.393,79.14C168.545,79.14 167.907,78.934 167.479,78.522C167.051,78.11 166.837,77.416 166.837,76.44L166.837,74.268L166.309,74.268L166.309,72.3C166.613,72.3 166.841,72.222 166.993,72.066C167.145,71.91 167.221,71.696 167.221,71.424L167.221,70.884L169.765,70.884L169.765,72.3L171.385,72.3L171.385,74.268L169.765,74.268L169.765,76.236C169.765,76.5 169.823,76.694 169.939,76.818C170.055,76.942 170.229,77.004 170.461,77.004C170.765,77.004 171.097,76.968 171.457,76.896L171.457,78.78C171.233,78.868 170.931,78.95 170.551,79.026C170.171,79.102 169.785,79.14 169.393,79.14Z" style="fill:white;fill-rule:nonzero;"/>
        <path d="M166.636,74.468L166.309,74.468C166.198,74.468 166.108,74.378 166.108,74.268L166.108,72.3C166.108,72.189 166.198,72.099 166.309,72.099C166.547,72.099 166.73,72.048 166.849,71.926C166.968,71.804 167.02,71.636 167.02,71.424L167.02,70.884C167.02,70.773 167.11,70.683 167.221,70.683L169.765,70.683C169.876,70.683 169.965,70.773 169.965,70.884L169.965,72.099L171.385,72.099C171.496,72.099 171.585,72.189 171.585,72.3L171.585,74.268C171.585,74.378 171.496,74.468 171.385,74.468L169.965,74.468L169.965,76.236C169.965,76.436 169.997,76.587 170.085,76.681C170.168,76.769 170.295,76.803 170.461,76.803C170.753,76.803 171.072,76.768 171.417,76.699C171.476,76.687 171.537,76.703 171.584,76.741C171.63,76.779 171.657,76.836 171.657,76.896L171.657,78.78C171.657,78.862 171.607,78.936 171.53,78.966C171.298,79.058 170.984,79.143 170.59,79.222C170.197,79.301 169.798,79.34 169.393,79.34C168.482,79.34 167.8,79.109 167.34,78.666C166.881,78.225 166.636,77.486 166.636,76.44L166.636,74.468ZM169.564,71.084L167.421,71.084L167.421,71.424C167.421,71.756 167.322,72.015 167.136,72.206C166.987,72.359 166.779,72.457 166.509,72.489L166.509,74.067L166.837,74.067C166.948,74.067 167.037,74.157 167.037,74.268C167.037,74.268 167.037,76.44 167.037,76.44C167.037,77.346 167.22,77.995 167.618,78.377C168.014,78.759 168.608,78.939 169.393,78.939C169.771,78.939 170.144,78.903 170.511,78.829C170.81,78.77 171.058,78.707 171.256,78.639L171.256,77.136C170.973,77.181 170.708,77.204 170.461,77.204C170.162,77.204 169.942,77.114 169.792,76.955C169.648,76.801 169.564,76.564 169.564,76.236L169.564,74.268C169.564,74.157 169.654,74.067 169.765,74.067L171.184,74.067L171.184,72.5L169.765,72.5C169.654,72.5 169.564,72.41 169.564,72.3L169.564,71.084Z"/>
    </g>
    <g transform="matrix(8.82724,0,0,8.82724,-786.868,-736.413)">
        <path d="M101.748,122.833C100.98,122.833 100.254,122.767 99.57,122.635C98.886,122.503 98.36,122.353 97.992,122.185L97.992,119.809L100.632,119.809C100.632,120.057 100.688,120.237 100.8,120.349C100.912,120.461 101.116,120.517 101.412,120.517C101.66,120.517 101.838,120.479 101.946,120.403C102.054,120.327 102.108,120.213 102.108,120.061C102.108,119.933 102.056,119.823 101.952,119.731C101.848,119.639 101.668,119.545 101.412,119.449L100.38,119.089C99.492,118.753 98.854,118.357 98.466,117.901C98.078,117.445 97.884,116.829 97.884,116.053C97.884,115.109 98.194,114.391 98.814,113.899C99.434,113.407 100.468,113.161 101.916,113.161C102.612,113.161 103.266,113.231 103.878,113.371C104.49,113.511 104.984,113.697 105.36,113.929L105.36,116.077L102.96,116.077C102.96,115.677 102.712,115.477 102.216,115.477C101.976,115.477 101.806,115.507 101.706,115.567C101.606,115.627 101.556,115.733 101.556,115.885C101.556,116.021 101.614,116.129 101.73,116.209C101.846,116.289 102.036,116.373 102.3,116.461L103.344,116.821C104.192,117.109 104.81,117.483 105.198,117.943C105.586,118.403 105.78,119.005 105.78,119.749C105.78,120.765 105.438,121.533 104.754,122.053C104.07,122.573 103.068,122.833 101.748,122.833Z" style="fill:white;fill-rule:nonzero;"/>
        <path d="M101.748,123.059C103.13,123.059 104.176,122.777 104.891,122.233C105.63,121.672 106.007,120.846 106.007,119.749C106.007,118.944 105.791,118.294 105.371,117.797C104.962,117.311 104.313,116.91 103.417,116.606C103.418,116.607 102.374,116.247 102.374,116.247C102.373,116.246 102.373,116.246 102.372,116.246C102.135,116.167 101.963,116.094 101.859,116.022C101.809,115.988 101.783,115.943 101.783,115.885C101.783,115.829 101.786,115.783 101.823,115.761C101.9,115.715 102.032,115.703 102.216,115.703C102.428,115.703 102.582,115.735 102.667,115.837C102.716,115.897 102.734,115.978 102.734,116.077C102.734,116.202 102.835,116.303 102.96,116.303L105.36,116.303C105.485,116.303 105.587,116.202 105.587,116.077L105.587,113.929C105.587,113.85 105.546,113.777 105.479,113.736C105.086,113.493 104.569,113.296 103.929,113.15C103.301,113.006 102.63,112.934 101.916,112.934C100.401,112.934 99.322,113.206 98.673,113.721C98.001,114.255 97.658,115.029 97.658,116.053C97.658,116.891 97.874,117.555 98.294,118.048C98.701,118.526 99.368,118.948 100.3,119.301L100.306,119.303L101.338,119.663C101.554,119.744 101.712,119.821 101.802,119.9C101.853,119.946 101.882,119.998 101.882,120.061C101.882,120.129 101.864,120.183 101.816,120.217C101.735,120.275 101.599,120.29 101.412,120.29C101.196,120.29 101.042,120.27 100.961,120.189C100.883,120.111 100.859,119.981 100.859,119.809C100.859,119.684 100.757,119.582 100.632,119.582L97.992,119.582C97.867,119.582 97.766,119.684 97.766,119.809L97.766,122.185C97.766,122.273 97.817,122.354 97.898,122.391C98.278,122.564 98.821,122.721 99.527,122.857C100.225,122.992 100.965,123.059 101.748,123.059ZM105.134,114.058C104.79,113.867 104.355,113.712 103.828,113.592C103.232,113.455 102.594,113.387 101.916,113.387C100.536,113.387 99.546,113.607 98.955,114.076C98.387,114.527 98.111,115.188 98.111,116.053C98.111,116.766 98.282,117.335 98.639,117.754C99.007,118.187 99.616,118.557 100.458,118.876L101.492,119.237C101.782,119.346 101.984,119.457 102.102,119.561C102.259,119.7 102.335,119.867 102.335,120.061C102.335,120.297 102.244,120.47 102.077,120.588C101.942,120.683 101.722,120.743 101.412,120.743C101.036,120.743 100.782,120.651 100.64,120.509C100.531,120.399 100.454,120.243 100.422,120.035L98.219,120.035L98.219,122.035C98.565,122.175 99.03,122.3 99.613,122.412C100.284,122.542 100.995,122.606 101.748,122.606C103.007,122.606 103.965,122.368 104.617,121.872C105.247,121.394 105.554,120.684 105.554,119.749C105.554,119.066 105.381,118.511 105.025,118.089C104.659,117.655 104.072,117.307 103.271,117.035C103.271,117.035 103.271,117.035 103.27,117.035C103.27,117.035 102.226,116.675 102.229,116.676C101.938,116.579 101.73,116.483 101.602,116.395C101.419,116.269 101.33,116.099 101.33,115.885C101.33,115.636 101.426,115.47 101.59,115.372C101.713,115.298 101.92,115.25 102.216,115.25C102.6,115.25 102.862,115.363 103.016,115.548C103.085,115.632 103.135,115.732 103.162,115.85L105.134,115.85L105.134,114.058Z"/>
        <path d="M109.488,123.361L110.316,123.361L110.316,121.849C110.116,122.105 109.858,122.333 109.542,122.533C109.226,122.733 108.864,122.833 108.456,122.833C107.64,122.833 107.026,122.529 106.614,121.921C106.202,121.313 105.996,120.449 105.996,119.329C105.996,118.209 106.202,117.345 106.614,116.737C107.026,116.129 107.64,115.825 108.456,115.825C108.864,115.825 109.226,115.925 109.542,116.125C109.858,116.325 110.116,116.553 110.316,116.809L110.316,115.993L113.604,115.993L113.604,117.961L113.076,117.961L113.076,125.329L109.488,125.329L109.488,123.361ZM109.62,120.697C109.852,120.697 110.026,120.635 110.142,120.511C110.258,120.387 110.316,120.193 110.316,119.929L110.316,118.729C110.316,118.465 110.258,118.271 110.142,118.147C110.026,118.023 109.852,117.961 109.62,117.961C109.388,117.961 109.214,118.023 109.098,118.147C108.982,118.271 108.924,118.465 108.924,118.729L108.924,119.929C108.924,120.193 108.982,120.387 109.098,120.511C109.214,120.635 109.388,120.697 109.62,120.697Z" style="fill:white;fill-rule:nonzero;"/>
        <path d="M110.09,122.41C109.961,122.521 109.819,122.626 109.663,122.724C109.312,122.947 108.91,123.059 108.456,123.059C107.556,123.059 106.881,122.719 106.427,122.048C105.994,121.41 105.77,120.505 105.77,119.329C105.77,118.153 105.994,117.248 106.427,116.61C106.881,115.939 107.556,115.598 108.456,115.598C108.91,115.598 109.312,115.711 109.663,115.933C109.819,116.032 109.961,116.136 110.09,116.247L110.09,115.993C110.09,115.868 110.191,115.766 110.316,115.766L113.604,115.766C113.729,115.766 113.831,115.868 113.831,115.993L113.831,117.961C113.831,118.086 113.729,118.187 113.604,118.187L113.303,118.187L113.303,125.329C113.303,125.454 113.201,125.555 113.076,125.555L109.488,125.555C109.363,125.555 109.262,125.454 109.262,125.329L109.262,123.361C109.262,123.236 109.363,123.134 109.488,123.134L110.09,123.134L110.09,122.41ZM110.543,116.219L110.543,116.809C110.543,116.905 110.481,116.991 110.39,117.023C110.299,117.054 110.197,117.024 110.138,116.948C109.953,116.711 109.713,116.501 109.421,116.316C109.141,116.139 108.819,116.051 108.456,116.051C107.725,116.051 107.171,116.319 106.802,116.864C106.41,117.442 106.223,118.264 106.223,119.329C106.223,120.393 106.41,121.216 106.802,121.794C107.171,122.339 107.725,122.606 108.456,122.606C108.819,122.606 109.141,122.519 109.421,122.341C109.713,122.156 109.953,121.946 110.138,121.709C110.197,121.633 110.299,121.603 110.39,121.635C110.481,121.666 110.543,121.752 110.543,121.849L110.543,123.361C110.543,123.486 110.441,123.587 110.316,123.587L109.715,123.587L109.715,125.102L112.85,125.102L112.85,117.961C112.85,117.836 112.951,117.734 113.076,117.734L113.378,117.734L113.378,116.219L110.543,116.219ZM109.62,120.923C109.928,120.923 110.154,120.83 110.308,120.666C110.455,120.508 110.543,120.265 110.543,119.929C110.543,119.929 110.543,118.729 110.543,118.729C110.543,118.393 110.455,118.15 110.308,117.992C110.154,117.828 109.928,117.734 109.62,117.734C109.313,117.734 109.087,117.828 108.933,117.992C108.785,118.15 108.698,118.393 108.698,118.729C108.698,118.729 108.698,119.929 108.698,119.929C108.698,120.265 108.785,120.508 108.933,120.666C109.087,120.83 109.313,120.923 109.62,120.923ZM109.62,120.47C109.464,120.47 109.342,120.44 109.264,120.356C109.179,120.266 109.151,120.121 109.151,119.929L109.151,118.729C109.151,118.537 109.179,118.392 109.264,118.302C109.342,118.218 109.464,118.187 109.62,118.187C109.777,118.187 109.898,118.218 109.977,118.302C110.061,118.392 110.09,118.537 110.09,118.729L110.09,119.929C110.09,120.121 110.061,120.266 109.977,120.356C109.898,120.44 109.777,120.47 109.62,120.47Z"/>
        <path d="M121.812,120.697L121.812,122.665L118.524,122.665L118.524,121.729C117.948,122.465 117.228,122.833 116.364,122.833C115.7,122.833 115.202,122.625 114.87,122.209C114.538,121.793 114.372,121.221 114.372,120.493L114.372,117.961L113.844,117.961L113.844,115.993L117.132,115.993L117.132,119.929C117.132,120.193 117.19,120.387 117.306,120.511C117.422,120.635 117.596,120.697 117.828,120.697C118.06,120.697 118.234,120.635 118.35,120.511C118.466,120.387 118.524,120.193 118.524,119.929L118.524,117.961L117.876,117.961L117.876,115.993L121.284,115.993L121.284,120.697L121.812,120.697Z" style="fill:white;fill-rule:nonzero;"/>
        <path d="M114.146,118.187L113.844,118.187C113.719,118.187 113.618,118.086 113.618,117.961L113.618,115.993C113.618,115.868 113.719,115.766 113.844,115.766L117.132,115.766C117.257,115.766 117.359,115.868 117.359,115.993C117.359,115.993 117.359,119.929 117.359,119.929C117.359,120.121 117.387,120.266 117.472,120.356C117.55,120.44 117.672,120.47 117.828,120.47C117.985,120.47 118.106,120.44 118.185,120.356C118.269,120.266 118.298,120.121 118.298,119.929L118.298,118.187L117.876,118.187C117.751,118.187 117.65,118.086 117.65,117.961L117.65,115.993C117.65,115.868 117.751,115.766 117.876,115.766L121.284,115.766C121.409,115.766 121.511,115.868 121.511,115.993L121.511,120.47L121.812,120.47C121.937,120.47 122.039,120.572 122.039,120.697L122.039,122.665C122.039,122.79 121.937,122.891 121.812,122.891L118.524,122.891C118.399,122.891 118.298,122.79 118.298,122.665L118.298,122.309C117.752,122.81 117.107,123.059 116.364,123.059C115.62,123.059 115.065,122.817 114.693,122.35C114.333,121.899 114.146,121.282 114.146,120.493L114.146,118.187ZM116.906,116.219L114.071,116.219L114.071,117.734L114.372,117.734C114.497,117.734 114.599,117.836 114.599,117.961C114.599,117.961 114.599,120.493 114.599,120.493C114.599,121.16 114.743,121.686 115.047,122.067C115.339,122.433 115.781,122.606 116.364,122.606C117.158,122.606 117.817,122.265 118.346,121.589C118.405,121.513 118.507,121.483 118.598,121.515C118.69,121.546 118.751,121.632 118.751,121.729L118.751,122.438L121.586,122.438L121.586,120.923L121.284,120.923C121.159,120.923 121.058,120.822 121.058,120.697L121.058,116.219L118.103,116.219L118.103,117.734L118.524,117.734C118.649,117.734 118.751,117.836 118.751,117.961C118.751,117.961 118.751,119.929 118.751,119.929C118.751,120.265 118.663,120.508 118.516,120.666C118.362,120.83 118.136,120.923 117.828,120.923C117.521,120.923 117.295,120.83 117.141,120.666C116.993,120.508 116.906,120.265 116.906,119.929L116.906,116.219Z"/>
        <path d="M129.144,120.697L129.144,122.665L125.976,122.665L125.976,121.849C125.8,122.105 125.554,122.333 125.238,122.533C124.922,122.733 124.536,122.833 124.08,122.833C123.48,122.833 123.008,122.673 122.664,122.353C122.32,122.033 122.148,121.581 122.148,120.997C122.148,119.485 123.432,118.709 126,118.669C125.976,118.397 125.872,118.211 125.688,118.111C125.504,118.011 125.192,117.961 124.752,117.961C124.392,117.961 124.006,117.999 123.594,118.075C123.182,118.151 122.804,118.253 122.46,118.381L122.46,116.173C122.884,116.069 123.344,115.985 123.84,115.921C124.336,115.857 124.82,115.825 125.292,115.825C126.484,115.825 127.336,116.041 127.848,116.473C128.36,116.905 128.616,117.573 128.616,118.477L128.616,120.697L129.144,120.697ZM125.976,119.857C125.616,119.857 125.338,119.905 125.142,120.001C124.946,120.097 124.848,120.257 124.848,120.481C124.848,120.617 124.89,120.727 124.974,120.811C125.058,120.895 125.176,120.937 125.328,120.937C125.536,120.937 125.696,120.849 125.808,120.673C125.92,120.497 125.976,120.249 125.976,119.929L125.976,119.857Z" style="fill:white;fill-rule:nonzero;"/>
        <path d="M125.714,118.45C125.683,118.389 125.639,118.342 125.58,118.31C125.418,118.222 125.141,118.187 124.752,118.187C124.405,118.187 124.033,118.224 123.635,118.298C123.237,118.371 122.872,118.469 122.539,118.593C122.47,118.619 122.392,118.609 122.331,118.567C122.27,118.524 122.234,118.455 122.234,118.381L122.234,116.173C122.234,116.068 122.305,115.978 122.406,115.953C122.838,115.847 123.306,115.761 123.811,115.696C124.317,115.631 124.811,115.598 125.292,115.598C126.554,115.598 127.452,115.842 127.994,116.3C128.552,116.77 128.843,117.492 128.843,118.477L128.843,120.47L129.144,120.47C129.269,120.47 129.371,120.572 129.371,120.697L129.371,122.665C129.371,122.79 129.269,122.891 129.144,122.891L125.976,122.891C125.851,122.891 125.75,122.79 125.75,122.665L125.75,122.435C125.633,122.537 125.503,122.633 125.359,122.724C125.01,122.945 124.584,123.059 124.08,123.059C123.414,123.059 122.892,122.874 122.51,122.519C122.123,122.159 121.922,121.653 121.922,120.997C121.922,119.438 123.161,118.549 125.714,118.45ZM128.918,120.923L128.616,120.923C128.491,120.923 128.39,120.822 128.39,120.697L128.39,118.477C128.39,117.653 128.169,117.04 127.702,116.646C127.22,116.239 126.414,116.051 125.292,116.051C124.83,116.051 124.355,116.083 123.869,116.145C123.449,116.2 123.055,116.269 122.687,116.352L122.687,118.064C122.957,117.979 123.246,117.909 123.553,117.852C123.98,117.773 124.38,117.734 124.752,117.734C125.244,117.734 125.591,117.8 125.796,117.912C126.042,118.045 126.194,118.286 126.226,118.649C126.232,118.712 126.211,118.774 126.169,118.82C126.126,118.867 126.067,118.894 126.004,118.895C123.611,118.933 122.375,119.588 122.375,120.997C122.375,121.508 122.517,121.907 122.819,122.187C123.125,122.471 123.547,122.606 124.08,122.606C124.488,122.606 124.834,122.52 125.117,122.341C125.405,122.159 125.629,121.953 125.79,121.72C125.846,121.639 125.949,121.603 126.043,121.632C126.138,121.662 126.203,121.749 126.203,121.849L126.203,122.438L128.918,122.438L128.918,120.923ZM126.203,119.857C126.203,119.732 126.101,119.63 125.976,119.63C125.573,119.63 125.262,119.69 125.043,119.797C124.763,119.934 124.622,120.161 124.622,120.481C124.622,120.683 124.689,120.846 124.814,120.971C124.937,121.094 125.106,121.163 125.328,121.163C125.619,121.163 125.843,121.04 125.999,120.794C126.13,120.589 126.203,120.302 126.203,119.929C126.203,119.929 126.203,119.857 126.203,119.857ZM125.744,120.091C125.537,120.105 125.37,120.142 125.242,120.204C125.129,120.259 125.075,120.352 125.075,120.481C125.075,120.55 125.092,120.608 125.135,120.651C125.18,120.696 125.246,120.71 125.328,120.71C125.453,120.71 125.55,120.657 125.617,120.551C125.691,120.435 125.731,120.282 125.744,120.091Z"/>
        <path d="M131.892,122.833C131.076,122.833 130.462,122.529 130.05,121.921C129.638,121.313 129.432,120.449 129.432,119.329C129.432,118.209 129.638,117.345 130.05,116.737C130.462,116.129 131.076,115.825 131.892,115.825C132.3,115.825 132.662,115.925 132.978,116.125C133.294,116.325 133.552,116.553 133.752,116.809L133.752,115.297L133.044,115.297L133.044,113.329L136.512,113.329L136.512,120.697L137.04,120.697L137.04,122.665L133.752,122.665L133.752,121.849C133.552,122.105 133.294,122.333 132.978,122.533C132.662,122.733 132.3,122.833 131.892,122.833ZM133.056,120.697C133.288,120.697 133.462,120.635 133.578,120.511C133.694,120.387 133.752,120.193 133.752,119.929L133.752,118.729C133.752,118.465 133.694,118.271 133.578,118.147C133.462,118.023 133.288,117.961 133.056,117.961C132.824,117.961 132.65,118.023 132.534,118.147C132.418,118.271 132.36,118.465 132.36,118.729L132.36,119.929C132.36,120.193 132.418,120.387 132.534,120.511C132.65,120.635 132.824,120.697 133.056,120.697Z" style="fill:white;fill-rule:nonzero;"/>
        <path d="M133.526,115.523L133.044,115.523C132.919,115.523 132.818,115.422 132.818,115.297L132.818,113.329C132.818,113.204 132.919,113.102 133.044,113.102L136.512,113.102C136.637,113.102 136.739,113.204 136.739,113.329L136.739,120.47L137.04,120.47C137.165,120.47 137.267,120.572 137.267,120.697L137.267,122.665C137.267,122.79 137.165,122.891 137.04,122.891L133.752,122.891C133.627,122.891 133.526,122.79 133.526,122.665L133.526,122.41C133.397,122.521 133.255,122.626 133.099,122.724C132.748,122.947 132.346,123.059 131.892,123.059C130.992,123.059 130.317,122.719 129.863,122.048C129.43,121.41 129.206,120.505 129.206,119.329C129.206,118.153 129.43,117.248 129.863,116.61C130.317,115.939 130.992,115.598 131.892,115.598C132.346,115.598 132.748,115.711 133.099,115.933C133.255,116.032 133.397,116.136 133.526,116.247L133.526,115.523ZM136.286,113.555L133.271,113.555L133.271,115.07L133.752,115.07C133.877,115.07 133.979,115.172 133.979,115.297L133.979,116.809C133.979,116.905 133.917,116.991 133.826,117.023C133.735,117.054 133.633,117.024 133.574,116.948C133.389,116.711 133.149,116.501 132.857,116.316C132.577,116.139 132.255,116.051 131.892,116.051C131.161,116.051 130.607,116.319 130.238,116.864C129.846,117.442 129.659,118.264 129.659,119.329C129.659,120.393 129.846,121.216 130.238,121.794C130.607,122.339 131.161,122.606 131.892,122.606C132.255,122.606 132.577,122.519 132.857,122.341C133.149,122.156 133.389,121.946 133.574,121.709C133.633,121.633 133.735,121.603 133.826,121.635C133.917,121.666 133.979,121.752 133.979,121.849L133.979,122.438L136.814,122.438L136.814,120.923L136.512,120.923C136.387,120.923 136.286,120.822 136.286,120.697L136.286,113.555ZM133.056,120.923C133.364,120.923 133.59,120.83 133.744,120.666C133.891,120.508 133.979,120.265 133.979,119.929C133.979,119.929 133.979,118.729 133.979,118.729C133.979,118.393 133.891,118.15 133.744,117.992C133.59,117.828 133.364,117.734 133.056,117.734C132.749,117.734 132.523,117.828 132.369,117.992C132.221,118.15 132.134,118.393 132.134,118.729C132.134,118.729 132.134,119.929 132.134,119.929C132.134,120.265 132.221,120.508 132.369,120.666C132.523,120.83 132.749,120.923 133.056,120.923ZM133.056,120.47C132.9,120.47 132.778,120.44 132.7,120.356C132.615,120.266 132.587,120.121 132.587,119.929L132.587,118.729C132.587,118.537 132.615,118.392 132.7,118.302C132.778,118.218 132.9,118.187 133.056,118.187C133.213,118.187 133.334,118.218 133.413,118.302C133.497,118.392 133.526,118.537 133.526,118.729L133.526,119.929C133.526,120.121 133.497,120.266 133.413,120.356C133.334,120.44 133.213,120.47 133.056,120.47Z"/>
    </g>
</svg>
